<svg width="19" height="19" viewBox="0 0 19 19" fill="none" xmlns="http://www.w3.org/2000/svg">
<g clip-path="url(#clip0_56_2223)">
<path d="M18.6571 5.49057C18.6134 4.4983 18.4529 3.81612 18.223 3.225C17.9859 2.59754 17.6211 2.03578 17.1431 1.56879C16.6761 1.09452 16.1107 0.726002 15.4905 0.492576C14.8959 0.262712 14.2173 0.10225 13.225 0.0585002C12.2254 0.0110455 11.908 7.24792e-05 9.37252 7.24792e-05C6.83704 7.24792e-05 6.51968 0.0110455 5.5237 0.054795C4.53143 0.0985446 3.84925 0.25915 3.25827 0.48887C2.63067 0.726002 2.06891 1.09082 1.60192 1.56879C1.12765 2.03578 0.759275 2.60125 0.525706 3.22144C0.295843 3.81612 0.13538 4.49459 0.0916308 5.48686C0.0441761 6.48655 0.0332031 6.80391 0.0332031 9.33939C0.0332031 11.8749 0.0441761 12.1922 0.0879257 13.1882C0.131675 14.1805 0.29228 14.8627 0.522143 15.4538C0.759275 16.0812 1.12765 16.643 1.60192 17.11C2.06891 17.5843 2.63438 17.9528 3.25457 18.1862C3.84925 18.4161 4.52772 18.5765 5.52014 18.6203C6.51597 18.6642 6.83348 18.675 9.36896 18.675C11.9044 18.675 12.2218 18.6642 13.2178 18.6203C14.2101 18.5765 14.8922 18.4161 15.4832 18.1862C16.7383 17.701 17.7305 16.7087 18.2158 15.4538C18.4455 14.8591 18.6061 14.1805 18.6498 13.1882C18.6936 12.1922 18.7046 11.8749 18.7046 9.33939C18.7046 6.80391 18.7009 6.48655 18.6571 5.49057ZM16.9754 13.1152C16.9352 14.0273 16.782 14.5198 16.6543 14.8481C16.3405 15.6617 15.6948 16.3074 14.8813 16.6212C14.5529 16.7489 14.0569 16.9021 13.1484 16.9421C12.1634 16.986 11.868 16.9968 9.37623 16.9968C6.8845 16.9968 6.58537 16.986 5.60393 16.9421C4.69189 16.9021 4.19939 16.7489 3.87105 16.6212C3.46619 16.4716 3.09767 16.2344 2.79855 15.9243C2.48845 15.6215 2.25132 15.2567 2.10169 14.8518C1.974 14.5235 1.82081 14.0273 1.78076 13.119C1.73687 12.1339 1.72604 11.8384 1.72604 9.34666C1.72604 6.85493 1.73687 6.55581 1.78076 5.57451C1.82081 4.66246 1.974 4.16996 2.10169 3.84162C2.25132 3.43662 2.48845 3.06824 2.80225 2.76898C3.10493 2.45888 3.46975 2.22175 3.87476 2.07226C4.20309 1.94458 4.6993 1.79138 5.60764 1.75119C6.59264 1.70744 6.8882 1.69647 9.37979 1.69647C11.8752 1.69647 12.1706 1.70744 13.1521 1.75119C14.0641 1.79138 14.5566 1.94458 14.885 2.07226C15.2898 2.22175 15.6583 2.45888 15.9575 2.76898C16.2676 3.0718 16.5047 3.43662 16.6543 3.84162C16.782 4.16996 16.9352 4.66603 16.9754 5.57451C17.0191 6.55951 17.0301 6.85493 17.0301 9.34666C17.0301 11.8384 17.0191 12.1302 16.9754 13.1152Z" fill="white"/>
<path d="M9.37156 4.54197C6.72308 4.54197 4.57422 6.69068 4.57422 9.33931C4.57422 11.9879 6.72308 14.1367 9.37156 14.1367C12.0202 14.1367 14.1689 11.9879 14.1689 9.33931C14.1689 6.69068 12.0202 4.54197 9.37156 4.54197ZM9.37156 12.4512C7.65336 12.4512 6.25964 11.0577 6.25964 9.33931C6.25964 7.62097 7.65336 6.2274 9.37156 6.2274C11.0899 6.2274 12.4835 7.62097 12.4835 9.33931C12.4835 11.0577 11.0899 12.4512 9.37156 12.4512Z" fill="white"/>
<path d="M15.4783 4.35234C15.4783 4.97081 14.9769 5.4723 14.3582 5.4723C13.7398 5.4723 13.2383 4.97081 13.2383 4.35234C13.2383 3.73371 13.7398 3.23238 14.3582 3.23238C14.9769 3.23238 15.4783 3.73371 15.4783 4.35234Z" fill="white"/>
</g>
<defs>
<clipPath id="clip0_56_2223">
<rect width="18.675" height="18.675" fill="white"/>
</clipPath>
</defs>
</svg>
