<svg width="22" height="17" viewBox="0 0 22 17" fill="none" xmlns="http://www.w3.org/2000/svg">
<path d="M22 2.01875C21.1904 2.35078 20.3109 2.58984 19.4036 2.68281C20.3388 2.15156 21.0508 1.31484 21.3858 0.31875C20.5203 0.810156 19.5431 1.16875 18.5241 1.35469C17.7005 0.517968 16.5279 0 15.2297 0C12.731 0 10.7208 1.92578 10.7208 4.28984C10.7208 4.62187 10.7627 4.95391 10.8325 5.27266C7.09137 5.08672 3.75508 3.38672 1.53553 0.783594C1.14467 1.42109 0.92132 2.15156 0.92132 2.94844C0.92132 4.43594 1.71701 5.75078 2.93147 6.52109C2.19162 6.49453 1.49365 6.29531 0.893401 5.97656C0.893401 5.98984 0.893401 6.01641 0.893401 6.02969C0.893401 8.11484 2.44289 9.84141 4.50888 10.2398C4.13198 10.3328 3.72716 10.3859 3.32234 10.3859C3.02919 10.3859 2.75 10.3594 2.47081 10.3195C3.04315 12.0195 4.70431 13.2547 6.68655 13.2945C5.13706 14.45 3.1967 15.1273 1.08883 15.1273C0.711929 15.1273 0.362944 15.1141 0 15.0742C1.99619 16.2961 4.36929 17 6.92386 17C15.2157 17 19.7525 10.4656 19.7525 4.79453C19.7525 4.60859 19.7525 4.42266 19.7386 4.23672C20.618 3.62578 21.3858 2.86875 22 2.01875Z" fill="white"/>
</svg>
